<?xml version="1.0" encoding="UTF-8"?>
<!-- Generator: Adobe Illustrator 21.0.2, SVG Export Plug-In . SVG Version: 6.00 Build 0)  -->
<svg version="1.1" id="Layer_1" xmlns="http://www.w3.org/2000/svg" xmlns:xlink="http://www.w3.org/1999/xlink" x="0px" y="0px" viewBox="0 0 283.5 283.5" style="enable-background:new 0 0 283.5 283.5;" xml:space="preserve">
<style type="text/css">
	.st0{fill:#1B75BC;}
	.st1{fill:#D1D3D4;}
	.st2{clip-path:url(#SVGID_2_);}
	.st3{fill:#FFFFFF;}
</style>
<path class="st0" d="M248.7,283.5H34.8C15.6,283.5,0,267.9,0,248.7V34.8C0,15.6,15.6,0,34.8,0h213.9c19.2,0,34.8,15.6,34.8,34.8  v213.9C283.5,267.9,267.9,283.5,248.7,283.5z"/>
<g>
	<defs>
		<path id="SVGID_1_" d="M248.7,283.5H34.8C15.6,283.5,0,267.9,0,248.7V34.8C0,15.6,15.6,0,34.8,0h213.9c19.2,0,34.8,15.6,34.8,34.8    v213.9C283.5,267.9,267.9,283.5,248.7,283.5z"/>
	</defs>
	<clipPath id="SVGID_2_">
		<use xlink:href="#SVGID_1_" style="overflow:visible;"/>
	</clipPath>
	<g class="st2">
		<path class="st3" d="M185.8,271.8c-20,5.2-39.9,6.4-60.3,2.2c-25.3-5.2-49.3-17.8-67.6-36.1c-34.5-34.5-45.4-86.7-31.9-133    c14.4-49.1,58.4-88,110.4-91.2c46.4-2.8,90.3,27.7,99.8,73.7c-8-19.9-21.3-36-40.2-46.6c-22.5-12.6-48.8-14.9-73.4-7.3    C70,50,39.2,103.4,42.6,156.9c2.4,36.9,21.3,70.1,51.6,91.3C121.4,267.2,153.1,274.3,185.8,271.8z"/>
		<path class="st3" d="M290.4,7.2c16.6,15.3,29.3,32.9,37.5,54.1c10.1,26.4,12.6,55.8,6.5,83.4c-11.4,52-53,92.7-103.6,107.4    c-53.6,15.6-115.3-2-148.6-47.9c-29.8-41-27.6-99.3,9.2-135.1c-13.6,19-20.6,40.8-19.2,64.3c1.6,28.1,14.9,53.7,36.4,71.8    c46,38.8,113.1,35.8,160.4,1.1c32.5-23.8,52-60.8,53.6-101.1C324,69,311.9,35.7,290.4,7.2z"/>
	</g>
</g>
</svg>